<svg width="25" height="24" viewBox="0 0 25 24" fill="none" xmlns="http://www.w3.org/2000/svg">
<path d="M18.623 22.75H7.04301C4.30301 22.75 2.08301 20.52 2.08301 17.78V10.37C2.08301 9.00997 2.92301 7.29997 4.00301 6.45997L9.39301 2.25997C11.013 0.999974 13.603 0.939974 15.283 2.11997L21.463 6.44997C22.653 7.27997 23.583 9.05997 23.583 10.51V17.79C23.583 20.52 21.363 22.75 18.623 22.75ZM10.313 3.43997L4.92301 7.63997C4.21301 8.19997 3.58301 9.46997 3.58301 10.37V17.78C3.58301 19.69 5.13301 21.25 7.04301 21.25H18.623C20.533 21.25 22.083 19.7 22.083 17.79V10.51C22.083 9.54997 21.393 8.21997 20.603 7.67997L14.423 3.34997C13.283 2.54997 11.403 2.58997 10.313 3.43997Z" fill="#585E66"/>
<path d="M12.833 18.75C12.423 18.75 12.083 18.41 12.083 18V15C12.083 14.59 12.423 14.25 12.833 14.25C13.243 14.25 13.583 14.59 13.583 15V18C13.583 18.41 13.243 18.75 12.833 18.75Z" fill="#585E66"/>
</svg>
